<?xml version="1.0" encoding="utf-8"?>
<!-- Generator: Adobe Illustrator 21.1.0, SVG Export Plug-In . SVG Version: 6.00 Build 0)  -->
<svg version="1.1" id="Camada_1" xmlns="http://www.w3.org/2000/svg" xmlns:xlink="http://www.w3.org/1999/xlink" x="0px" y="0px"
	 viewBox="0 0 7.8 12.5" style="enable-background:new 0 0 7.8 12.5;" xml:space="preserve">
<style type="text/css">
	.st0{fill:#999999;}
</style>
<path class="st0" d="M6,7.2c1.1-0.7,1.8-1.9,1.8-3.3C7.8,1.8,6.1,0,3.9,0C1.8,0,0,1.8,0,3.9c0,2.2,1.8,3.9,3.9,3.9
	c0.2,0,0.4,0,0.6-0.1L6.3,12c0.2,0.4,0.6,0.6,1,0.4c0.4-0.2,0.6-0.6,0.4-1L6,7.2z M1,3.9C1,2.3,2.3,1,3.9,1c1.6,0,2.9,1.3,2.9,2.9
	c0,0.1,0,0.2,0,0.3C6.7,5.7,5.4,6.8,3.9,6.8C2.3,6.8,1,5.5,1,3.9z"/>
</svg>
