<?xml version="1.0" encoding="utf-8"?>
<!-- Generator: Adobe Illustrator 21.1.0, SVG Export Plug-In . SVG Version: 6.00 Build 0)  -->
<svg version="1.1" id="Camada_1" xmlns="http://www.w3.org/2000/svg" xmlns:xlink="http://www.w3.org/1999/xlink" x="0px" y="0px"
	 viewBox="0 0 13.5 13.6" style="enable-background:new 0 0 13.5 13.6;" xml:space="preserve">
<style type="text/css">
	.st0{fill:#999999;}
</style>
<g>
	<g>
		<path class="st0" d="M12.8,0L12.8,0L4.5,1.7C4.1,1.7,3.9,2,3.9,2.4v2.2v0.5v4.2C3.4,9,3,8.8,2.4,8.8C1.1,8.8,0,9.9,0,11.2
			s1.1,2.4,2.4,2.4s2.4-1.1,2.4-2.4c0,0,0-0.1,0-0.1l0,0V5.7l7.7-1.6v3.7c-0.4-0.3-0.9-0.5-1.4-0.5c-1.3,0-2.4,1.1-2.4,2.4
			s1.1,2.4,2.4,2.4s2.4-1.1,2.4-2.4c0,0,0-0.1,0-0.1l0,0V3.4V3.1V0.7C13.5,0.3,13.2,0,12.8,0z M2.4,12.6C1.6,12.6,1,12,1,11.2
			c0-0.8,0.7-1.4,1.4-1.4s1.4,0.7,1.4,1.4C3.9,12,3.2,12.6,2.4,12.6z M11.1,11.2c-0.8,0-1.4-0.7-1.4-1.4c0-0.8,0.7-1.4,1.4-1.4
			c0.8,0,1.4,0.7,1.4,1.4C12.5,10.5,11.9,11.2,11.1,11.2z"/>
	</g>
</g>
</svg>
