<?xml version="1.0" encoding="utf-8"?>
<!-- Generator: Adobe Illustrator 21.1.0, SVG Export Plug-In . SVG Version: 6.00 Build 0)  -->
<svg version="1.1" id="Camada_1" xmlns="http://www.w3.org/2000/svg" xmlns:xlink="http://www.w3.org/1999/xlink" x="0px" y="0px"
	 viewBox="0 0 13.2 13.5" style="enable-background:new 0 0 13.2 13.5;" xml:space="preserve">
<style type="text/css">
	.st0{fill:#999999;}
</style>
<path class="st0" d="M1.6,0C0.7,0,0,0.7,0,1.6V10v1.9c0,0.9,0.7,1.6,1.6,1.6h10c0.9,0,1.6-0.7,1.6-1.6V10V1.6c0-0.9-0.7-1.6-1.6-1.6
	H1.6z M1.6,0.7h0.8V6c0,0.3,0.3,0.6,0.6,0.6h0.1v4.3H1.6c-0.5,0-0.9-0.4-0.9-0.9V1.6C0.7,1.1,1.1,0.7,1.6,0.7z M4.6,0.7h0.9V6
	c0,0.3,0.3,0.6,0.6,0.6h0.1v4.3H3.9V6.6H4c0.3,0,0.6-0.3,0.6-0.6V0.7z M7.7,0.7h0.9V6c0,0.3,0.3,0.6,0.6,0.6h0.1v4.3H7V6.6h0.1
	c0.3,0,0.6-0.3,0.6-0.6V0.7z M10.9,0.7h0.7c0.5,0,0.9,0.4,0.9,0.9V10c0,0.5-0.4,0.9-0.9,0.9h-1.5V6.6h0.1c0.3,0,0.6-0.3,0.6-0.6V0.7
	z"/>
</svg>
